<?xml version="1.0" encoding="UTF-8" standalone="no"?>
<svg width="97px" height="26px" viewBox="0 0 97 26" version="1.1" xmlns="http://www.w3.org/2000/svg" xmlns:xlink="http://www.w3.org/1999/xlink">
    <!-- Generator: Sketch 3.8.3 (29802) - http://www.bohemiancoding.com/sketch -->
    <title>logo--phoenix-work--white</title>
    <desc>Created with Sketch.</desc>
    <defs></defs>
    <g id="Page-1" stroke="none" stroke-width="1" fill="none" fill-rule="evenodd">
        <g id="logo--phoenix-work--white" fill="#FFFFFF">
            <g id="Phoenix">
                <path d="M51.2939,10.7412 C50.4492,10.7412 49.6875,11.083 49.0087,11.7666 L49.0087,7.7969 L46.7528,7.7969 L46.7528,18.9444 L49.0087,18.9444 L49.0087,14.584 C49.0087,13.9522 49.1757,13.4736 49.5107,13.1485 C49.8457,12.8234 50.2363,12.6602 50.6855,12.6602 C51.5937,12.6602 52.0488,13.2823 52.0488,14.5254 L52.0488,18.9443 L54.3047,18.9443 L54.3047,14.0371 C54.3047,13.041 54.0137,12.2432 53.4326,11.6426 C52.8515,11.042 52.1387,10.7412 51.2939,10.7412 L51.2939,10.7412 Z M40.519,8.4561 L36.8066,8.4561 L36.8066,18.9444 L39.1504,18.9444 L39.1504,16.0225 L40.5454,16.0225 C42.102,16.0225 43.2583,15.7217 44.0146,15.1211 C44.7705,14.5205 45.1489,13.5742 45.1489,12.2832 C45.1489,10.9912 44.7807,10.0303 44.0444,9.4004 C43.3086,8.7715 42.1333,8.4561 40.519,8.4561 L40.519,8.4561 Z M42.3105,13.5234 C42.0297,13.8369 41.5014,13.9931 40.7251,13.9931 L39.1504,13.9931 L39.1504,10.4853 L40.4834,10.4853 C41.2549,10.4853 41.8223,10.6113 42.186,10.8642 C42.5497,11.1171 42.7319,11.5449 42.7319,12.1484 C42.7319,12.751 42.5913,13.209 42.3105,13.5234 L42.3105,13.5234 Z M13.4746,0 C6.2949,0 0.4751,5.8193 0.4751,12.999 C0.4751,20.1787 6.2949,25.998 13.4746,25.998 C20.6538,25.998 26.4741,20.1787 26.4741,12.999 C26.4741,5.8193 20.6538,0 13.4746,0 L13.4746,0 Z M6.6919,16.9482 L10.1182,10.1269 L13.544,16.9482 L6.6919,16.9482 L6.6919,16.9482 Z M16.2202,16.9482 L13.6792,11.9804 L16.2847,6.789 L21.3877,16.9482 L16.2202,16.9482 L16.2202,16.9482 Z M79.5615,10.7412 C78.7119,10.7412 77.9472,11.1006 77.2695,11.8183 L77.2695,10.873 L75.0136,10.873 L75.0136,18.9443 L77.2695,18.9443 L77.2695,14.5039 C77.2695,13.8818 77.4355,13.4092 77.7705,13.0859 C78.1055,12.7636 78.4971,12.6015 78.9463,12.6015 C79.8545,12.6015 80.3086,13.2138 80.3086,14.4384 L80.3086,18.9443 L82.5645,18.9443 L82.5645,14.0371 C82.5645,13.041 82.2764,12.2432 81.7002,11.6426 C81.124,11.042 80.4111,10.7412 79.5615,10.7412 L79.5615,10.7412 Z M60.1621,10.7412 C58.9375,10.7412 57.9199,11.1435 57.1123,11.9463 C56.3047,12.75 55.9004,13.7373 55.9004,14.9092 C55.9004,16.0811 56.3047,17.0664 57.1123,17.8643 C57.9199,18.6631 58.9375,19.0616 60.1621,19.0616 C61.3887,19.0616 62.4043,18.6632 63.2129,17.8643 C64.0215,17.0664 64.4258,16.0811 64.4258,14.9092 C64.4258,13.7373 64.0215,12.75 63.2129,11.9463 C62.4043,11.1436 61.3887,10.7412 60.1621,10.7412 L60.1621,10.7412 Z M61.6045,16.5205 C61.2285,16.9355 60.7481,17.1426 60.1621,17.1426 C59.5781,17.1426 59.0976,16.9356 58.7207,16.5205 C58.3438,16.1054 58.1562,15.5684 58.1562,14.9092 C58.1562,14.25 58.3437,13.71 58.7207,13.2901 C59.0977,12.8702 59.5781,12.6602 60.1621,12.6602 C60.748,12.6602 61.2285,12.8702 61.6045,13.2901 C61.9815,13.71 62.1699,14.2501 62.1699,14.9092 C62.1699,15.5683 61.9814,16.1055 61.6045,16.5205 L61.6045,16.5205 Z M85.7568,7.5918 C85.3857,7.5918 85.0722,7.7188 84.8154,7.9727 C84.5586,8.2266 84.4316,8.5391 84.4316,8.9102 C84.4316,9.2813 84.5586,9.5938 84.8154,9.8477 C85.0722,10.1016 85.3857,10.2286 85.7568,10.2286 C86.1279,10.2286 86.4404,10.1016 86.6943,9.8477 C86.9482,9.5938 87.0752,9.2813 87.0752,8.9102 C87.0752,8.5391 86.9482,8.2266 86.6943,7.9727 C86.4404,7.7188 86.1279,7.5918 85.7568,7.5918 L85.7568,7.5918 Z M84.6289,18.9443 L86.8848,18.9443 L86.8848,10.873 L84.6289,10.873 L84.6289,18.9443 L84.6289,18.9443 Z M69.6318,10.7412 C68.5234,10.7412 67.5615,11.1162 66.7461,11.8662 C65.9307,12.6152 65.5234,13.625 65.5234,14.8945 C65.5234,16.164 65.9238,17.1757 66.7246,17.9306 C67.5254,18.6845 68.5381,19.0615 69.7637,19.0615 C70.9893,19.0615 72.0567,18.6318 72.9649,17.7724 L71.7051,16.4101 C71.1973,16.9374 70.5469,17.2011 69.7559,17.2011 C69.2637,17.2011 68.8213,17.0624 68.4307,16.7841 C68.0401,16.5058 67.8106,16.1464 67.7422,15.707 L73.6231,15.707 L73.6231,14.5058 C73.6231,13.3339 73.2354,12.414 72.459,11.7451 C71.6826,11.0762 70.7402,10.7412 69.6318,10.7412 L69.6318,10.7412 Z M67.8008,14.0957 C67.8643,13.6367 68.0801,13.2734 68.4492,13.0049 C68.8183,12.7364 69.2246,12.6016 69.668,12.6016 C70.1133,12.6016 70.4903,12.7315 70.8008,12.9903 C71.1104,13.2491 71.292,13.6173 71.3457,14.0958 L67.8008,14.0958 L67.8008,14.0957 Z M93.7793,14.8213 L96.5547,10.8731 L93.918,10.8731 L92.4903,13.0342 L91.1133,10.8731 L88.4258,10.8731 L91.0987,14.836 L88.2794,18.9444 L90.8712,18.9444 L92.4024,16.7256 L93.9766,18.9444 L96.6582,18.9444 L93.7793,14.8213 L93.7793,14.8213 Z" id="Shape"></path>
            </g>
        </g>
    </g>
</svg>