<svg xmlns="http://www.w3.org/2000/svg" width="31" height="52"><path d="M0 0h31v52l-15-9-16 9z" fill="#0061ff"/><path d="M14.423 21.59c.376-.192.66-.404.853-.638.345-.416.517-.964.517-1.649 0-.663-.17-1.234-.512-1.71-.57-.776-1.537-1.17-2.9-1.193H6.976v11.2h5.042c.567 0 1.094-.05 1.58-.151a3.097 3.097 0 0 0 2.055-1.442c.334-.527.498-1.123.498-1.787 0-.643-.145-1.19-.436-1.641-.289-.452-.721-.781-1.29-.99zm9.834-1.012a3.248 3.248 0 0 0-1.385-1.188c-.56-.25-1.188-.375-1.885-.375-1.176 0-2.13.37-2.87 1.112-.736.742-1.103 1.807-1.103 3.199 0 1.484.41 2.554 1.223 3.214a4.375 4.375 0 0 0 2.825.987c1.292 0 2.298-.391 3.016-1.171.463-.491.72-.974.777-1.45h-2.14a1.75 1.75 0 0 1-.431.55c-.299.248-.687.368-1.164.368-.451 0-.837-.098-1.155-.3-.528-.323-.806-.887-.838-1.694h5.838c.01-.694-.014-1.226-.069-1.593a3.96 3.96 0 0 0-.64-1.659zm-11.2 4.88c-.272.133-.648.197-1.134.197H9.557V22.67h2.403c.48.004.854.067 1.12.19.474.216.711.618.711 1.2 0 .69-.245 1.154-.735 1.398zm-3.5-7.113h2.084c.535 0 .976.06 1.321.175.401.166.601.512.601 1.033 0 .472-.15.8-.454.985-.303.185-.696.278-1.183.278h-2.37zm13.667-.36v-1.12h-4.509v1.12zm-.434 4.462h-3.613c.076-.524.26-.938.559-1.243.295-.305.712-.46 1.25-.46.496 0 .911.146 1.243.435.335.288.521.71.56 1.268z" fill="#fff"/></svg>