<svg xmlns="http://www.w3.org/2000/svg" width="68" height="56"><path d="M29.015 26.78a3.498 3.498 0 0 1 3.494 3.502 3.498 3.498 0 0 1-3.494 3.503 3.499 3.499 0 0 1-3.495-3.503l-.015-.5c0-3.869 3.129-7.005 6.989-7.005v2.001a4.954 4.954 0 0 0-3.53 1.466 5.034 5.034 0 0 0-.497.579c.179-.028.362-.043.548-.043zm8.438.043c.149-.204.315-.397.496-.579a4.955 4.955 0 0 1 3.53-1.466v-2.001c-3.859 0-6.988 3.136-6.988 7.005l.015.5A3.499 3.499 0 0 0 38 33.785a3.499 3.499 0 0 0 3.495-3.503 3.499 3.499 0 0 0-4.042-3.459z" fill="#156df6"/><path d="M67.385 29.539a.17.17 0 0 0-.154-.03l-.164.048-.025.008a3.55 3.55 0 0 0-.343.111c-1.704.674-3.045 1.829-4.101 3.532-.261.42-.463.857-.623 1.294.263-1.467.324-2.038.371-3.679.002-.069.002-.139.002-.209 0-.189 0-.369.042-.532.05-.194.15-.388.248-.575l.077-.152a.108.108 0 0 1 .043-.026c.487-.074.918-.28 1.318-.63.402-.354.733-.788.984-1.289.899-1.796 1.349-3.781 1.337-5.899-.001-.205-.025-.404-.051-.62-.012-.097-.025-.196-.035-.299a.165.165 0 0 0-.091-.131.166.166 0 0 0-.16.009l-.08.047a1.183 1.183 0 0 0-.113.073 8.613 8.613 0 0 0-2.011 2.025 8.81 8.81 0 0 0-1.61 4.393l-.044-.541-.005-.066a142.7 142.7 0 0 1-.163-2.159c-.012-.182-.048-.359-.082-.531-.065-.33-.127-.641-.028-.967.023-.074.042-.148.061-.223.046-.183.273-.466.621-.775l.013-.012c.128-.108.787-.708 1.16-1.895.379-1.206.351-2.467.33-3.387l-.001-.025c-.027-1.265-.165-2.218-.445-3.091-.036-.112-.079-.222-.124-.338l-.073-.187a.161.161 0 0 0-.126-.105l-.028-.003a.164.164 0 0 0-.128.061l-.272.33c-1.303 1.583-1.944 3.441-1.904 5.521.007.366.035.742.083 1.13a31.915 31.915 0 0 0-1.162-3.314.234.234 0 0 1-.015-.077l-.003-.146a9.843 9.843 0 0 1-.001-.643.34.34 0 0 1 .073-.162c.068-.089.144-.177.222-.269.134-.155.272-.315.381-.498.353-.587.518-1.281.521-2.185.005-1.063-.16-2.182-.519-3.521-.196-.731-.492-1.68-1.043-2.541-.037-.058-.079-.112-.123-.17l-.063-.082c-.031-.042-.074-.066-.144-.066a.167.167 0 0 0-.133.084c-.691 1.243-1.036 2.572-1.052 4.061-.014 1.242.181 2.31.425 3.154a31.46 31.46 0 0 0-2.06-3.258l-.017-.024c-.017-.022-.024-.033-.023-.025-.047-.336-.08-.604-.102-.837 0-.003.005-.023.04-.081a5.01 5.01 0 0 1 .161-.253c.115-.175.235-.356.311-.559.231-.612.283-1.306.158-2.12-.273-1.804-1.071-3.428-2.439-4.965-.141-.158-.297-.297-.461-.445l-.046-.041c-.064-.058-.13-.117-.197-.18a.164.164 0 0 0-.274.083l-.03.13c-.02.087-.036.155-.048.224-.184 1.095-.171 2.267.041 3.584.211 1.307.63 2.434 1.273 3.414a26.23 26.23 0 0 0-2.882-2.924.094.094 0 0 1-.012-.028c.077-.657-.086-1.277-.498-1.893-.54-.81-1.291-1.427-2.232-1.835A33.673 33.673 0 0 0 47.4.668a92.658 92.658 0 0 1-.829-.31c-.283-.113-.404-.133-.47-.072-.085.078-.064.145-.027.267l.012.04c.345 1.158.803 2.075 1.401 2.801 1.097 1.335 2.38 2.013 3.921 2.073a.234.234 0 0 1 .114.031c.217.162.377.292.518.42.446.406.886.839 1.316 1.295-.64-.396-1.422-.575-2.302-.531-.482.025-.96.096-1.423.163l-.018.003-.408.059c-.297.04-.597.092-.862.139-.107.019-.363.077-.422.2a.141.141 0 0 0 .005.131c.02.037.043.071.067.103.764.987 1.635 1.637 2.664 1.987 1.254.429 2.406.394 3.441-.111.158-.087.349-.131.567-.131.165 0 .288.026.329.036.062.01.145.044.162.066a30.001 30.001 0 0 1 1.825 2.689c-.482-.467-1.111-.782-1.967-.986-.751-.179-1.518-.217-2.26-.254l-.248-.013a45.724 45.724 0 0 1-.705-.042l-.402-.024a.165.165 0 0 0-.154.222c.017.043.046.121.061.146.783 1.304 1.701 2.206 2.809 2.757 1.082.539 2.061.681 3.047.446.114-.027.247-.041.383-.041.42 0 .713.127.774.245a32.944 32.944 0 0 1 1.445 3.456c-.438-.601-1.051-1.09-1.827-1.456-.77-.362-1.573-.693-2.363-1.019-.339-.14-.68-.28-1.019-.424a.166.166 0 0 0-.231.151c0 .105 1.127 3.218 2.762 4.445.667.5 1.489 1.015 2.525 1.039.31.007.631.051.873.325a.321.321 0 0 0 .14.095c.082.027.105.078.146.25.336 1.403.58 2.85.731 4.319a6.268 6.268 0 0 0-.159-.452c-.366-.925-.983-1.734-1.939-2.546a49.507 49.507 0 0 0-1.509-1.222l-.024-.019c-.227-.179-.454-.358-.68-.539-.047-.037-.092-.076-.145-.121l-.141-.121a.17.17 0 0 0-.181-.021.164.164 0 0 0-.09.158c.007.099.012.193.017.283l.003.042c.011.186.022.361.041.534.177 1.684.679 3.089 1.536 4.297.531.746 1.292 1.659 2.478 2.091.289.105.498.265.723.552.211.269.251.514.246.823a33.944 33.944 0 0 1-.276 3.835 5.24 5.24 0 0 0-.243-1.084c-.257-.775-.658-1.528-1.225-2.303-.489-.671-.999-1.344-1.491-1.996l-.033-.044-.581-.769c-.035-.052-.087-.07-.116-.081a.17.17 0 0 0-.138-.003.168.168 0 0 0-.092.1l-.006.018a.543.543 0 0 0-.018.065c-.339 2.018-.131 3.826.637 5.528.376.831.879 1.773 1.766 2.451.405.31.725.743.901 1.222.037.103.036.148.031.165a29.153 29.153 0 0 1-1.462 4.458 5.635 5.635 0 0 0-.032-2.339c-.249-1.15-.677-2.264-1.058-3.219l-.115-.285-.545-1.365c-.023-.06-.08-.101-.156-.104a.16.16 0 0 0-.143.089l-.06.112a1.9 1.9 0 0 0-.072.142c-.768 1.725-1.027 3.493-.77 5.255.183 1.261.494 2.162 1.008 2.926.265.395.518.834.564 1.374.011.129.006.216-.052.317a24.737 24.737 0 0 1-2.169 3.187.229.229 0 0 1 .009-.016c.572-1.042.589-2.168.531-3.133a45.388 45.388 0 0 0-.237-2.45l-.005-.047a75.958 75.958 0 0 1-.107-.959l-.063-.548-.03-.249a.163.163 0 0 0-.089-.127c-.09-.047-.236.026-.394.212-1.086 1.279-1.759 2.724-2.003 4.295-.252 1.63-.115 3.025.419 4.264.014.032.014.1.014.122l-.029.713a.237.237 0 0 1-.054.131 19.212 19.212 0 0 1-3.558 2.696c.606-.546 1.042-1.258 1.325-2.161.313-1 .473-2.041.629-3.05l.014-.09c.055-.354.112-.708.171-1.07l.066-.409a.163.163 0 0 0-.06-.155.171.171 0 0 0-.166-.023l-.057.024c-.062.026-.116.048-.167.074-2.421 1.205-4.015 4.014-3.789 6.679.035.418-.004.81-.118 1.198a.162.162 0 0 1-.059.08c-1.15.484-2.243.836-3.343 1.078a.163.163 0 0 0-.12.107.166.166 0 0 0 .03.159c.12.141.224.293.31.452a.17.17 0 0 0 .181.082 19.057 19.057 0 0 0 2.595-.785.32.32 0 0 1 .166-.031c.184.024.378.062.593.115.045.011.082.031.082.029.471.935 1.28 1.531 2.475 1.821.26.062.528.107.797.135.281.03.595.045.932.045.467 0 .8-.028.804-.029 1.035-.115 1.919-.348 2.703-.71.321-.148.687-.348.969-.705a.164.164 0 0 0-.021-.224c-.795-.699-1.605-1.207-2.477-1.553-1.29-.511-2.466-.65-3.618-.428a5.298 5.298 0 0 0-.504.123 20.607 20.607 0 0 0 3.085-2.256.167.167 0 0 1 .073-.036c.16-.026.371-.059.588-.074.02 0 .046.01.049.011.587.654 1.344.972 2.313.972l.148-.002c1.054-.034 2.114-.323 3.15-.858.753-.392 1.538-.847 2.175-1.526.141-.151.267-.322.378-.473l.011-.015c.049-.067.099-.133.15-.199a.167.167 0 0 0 .033-.128.17.17 0 0 0-.079-.114 5.421 5.421 0 0 0-.526-.245c-1.648-.634-3.312-.699-4.899-.189a5.18 5.18 0 0 0-1.485.761 25.727 25.727 0 0 0 2.436-3.34c.008-.012.029-.047.036-.053.065-.041.131-.08.197-.119.118-.069.241-.14.356-.226.097-.072.125-.074.223-.011.139.09.3.137.441.173.824.21 1.654.106 2.573-.324.839-.391 1.484-1.011 2.056-1.622.833-.891 1.377-1.694 1.713-2.529.07-.176.12-.357.173-.546.021-.08.043-.159.067-.238a.164.164 0 0 0-.103-.202l-.068-.005c-.34 0-3.369.05-5.14 1.762a9.076 9.076 0 0 0-1.047 1.202 32.111 32.111 0 0 0 1.774-4.654l.007-.024c.006-.019.015-.049.021-.057l.463-.634c.017-.025.019-.025.047-.025l.04.001.099.006c.345.022.548.019.715-.007.659-.104 1.255-.435 1.82-1.012 1.322-1.351 2.231-3.035 2.781-5.149.059-.227.075-.456.093-.698.008-.11.016-.223.029-.34a.167.167 0 0 0-.059-.145zM22.544 54.121a19.206 19.206 0 0 1-3.343-1.077.175.175 0 0 1-.058-.079 3.211 3.211 0 0 1-.118-1.199c.225-2.666-1.368-5.475-3.789-6.679a2.069 2.069 0 0 0-.167-.074l-.057-.024a.17.17 0 0 0-.165.022.164.164 0 0 0-.062.156l.067.409c.058.362.116.716.171 1.07l.014.092c.156 1.007.316 2.048.629 3.048.283.903.719 1.615 1.325 2.161a19.212 19.212 0 0 1-3.558-2.696.236.236 0 0 1-.054-.128l-.029-.713c0-.025 0-.093.014-.126.534-1.239.671-2.633.418-4.263-.243-1.571-.916-3.016-2.002-4.295-.127-.15-.239-.226-.333-.226a.124.124 0 0 0-.06.014.16.16 0 0 0-.09.127l-.029.249c-.023.185-.044.366-.064.548-.033.32-.07.64-.107.959l-.005.047a45.388 45.388 0 0 0-.237 2.45c-.059.965-.041 2.091.531 3.133l.009.015a24.663 24.663 0 0 1-2.17-3.186c-.057-.101-.062-.188-.051-.317.046-.541.298-.98.564-1.374.514-.764.824-1.665 1.008-2.926.257-1.762-.002-3.529-.77-5.255a1.9 1.9 0 0 0-.072-.142l-.06-.113a.166.166 0 0 0-.154-.088.163.163 0 0 0-.145.104L9 35.11l-.115.285c-.381.955-.809 2.069-1.058 3.219a5.619 5.619 0 0 0-.032 2.339 29.008 29.008 0 0 1-1.462-4.458c-.005-.017-.006-.062.031-.165.176-.479.496-.913.901-1.222.887-.678 1.39-1.62 1.765-2.452.769-1.701.977-3.509.637-5.527-.003-.021-.01-.042-.017-.065l-.006-.018a.171.171 0 0 0-.093-.101.176.176 0 0 0-.132.002c-.034.013-.086.031-.119.08-.192.256-.388.514-.583.772l-.033.044c-.492.651-1.002 1.325-1.491 1.995-.567.775-.968 1.529-1.225 2.303a5.263 5.263 0 0 0-.243 1.085 33.944 33.944 0 0 1-.276-3.835c-.005-.309.035-.555.247-.823.224-.287.433-.447.722-.552 1.186-.433 1.947-1.345 2.478-2.091.857-1.208 1.359-2.613 1.536-4.297.019-.173.03-.348.041-.534l.002-.042c.006-.09.011-.184.019-.284a.166.166 0 0 0-.091-.157.169.169 0 0 0-.181.022l-.141.12a7.76 7.76 0 0 1-.145.121c-.226.181-.453.36-.68.539l-.024.019c-.499.393-1.016.801-1.509 1.221-.956.813-1.572 1.622-1.939 2.547-.06.152-.113.303-.159.452.151-1.469.395-2.916.731-4.32.041-.171.063-.222.147-.249a.322.322 0 0 0 .138-.094c.243-.276.564-.32.874-.326 1.036-.024 1.858-.539 2.525-1.039 1.636-1.227 2.762-4.34 2.762-4.446a.164.164 0 0 0-.075-.137.168.168 0 0 0-.155-.014c-.34.145-.681.285-1.034.43-.776.321-1.579.652-2.349 1.014-.776.366-1.389.854-1.827 1.456a32.94 32.94 0 0 1 1.444-3.454c.062-.12.355-.248.775-.248.136 0 .269.014.383.042.986.236 1.965.093 3.047-.446 1.108-.552 2.027-1.453 2.809-2.758.015-.025.045-.102.061-.145a.165.165 0 0 0-.163-.222h-.002l-.391.024c-.239.016-.472.03-.705.042l-.248.012c-.742.038-1.51.076-2.26.254-.856.205-1.485.52-1.967.987a29.585 29.585 0 0 1 1.825-2.689c.017-.023.1-.057.168-.068a1.48 1.48 0 0 1 .322-.034c.218 0 .409.044.571.133 1.029.501 2.184.538 3.438.109 1.028-.35 1.899-1 2.663-1.987a.834.834 0 0 0 .068-.103.138.138 0 0 0 .004-.131c-.059-.123-.315-.181-.422-.201-.265-.045-.564-.098-.861-.138l-.409-.059-.017-.002c-.463-.068-.941-.139-1.423-.163-.881-.045-1.663.134-2.302.53.43-.456.869-.888 1.316-1.295.141-.128.301-.257.518-.42a.232.232 0 0 1 .112-.031c1.542-.06 2.826-.738 3.923-2.073.598-.726 1.056-1.642 1.401-2.801l.012-.04c.037-.121.057-.188-.028-.267-.065-.061-.18-.042-.479.076a69.41 69.41 0 0 1-.826.308c-.565.209-1.148.424-1.711.667-.941.408-1.692 1.025-2.233 1.835-.412.617-.574 1.236-.498 1.891 0 .007-.007.024-.008.027a26.196 26.196 0 0 0-2.885 2.927c.643-.979 1.062-2.106 1.272-3.413.212-1.317.225-2.49.041-3.585a3.385 3.385 0 0 0-.047-.223l-.03-.132a.17.17 0 0 0-.113-.12.166.166 0 0 0-.161.038c-.067.063-.133.123-.198.181l-.045.04c-.165.148-.32.288-.461.446-1.368 1.537-2.166 3.161-2.44 4.964-.124.815-.072 1.509.158 2.12.077.203.196.384.315.564.054.082.108.164.158.249.036.058.04.075.04.074-.023.24-.055.51-.099.832a.345.345 0 0 1-.028.039l-.015.022a31.187 31.187 0 0 0-2.06 3.258c.244-.844.439-1.913.425-3.154-.017-1.49-.361-2.818-1.053-4.062a.17.17 0 0 0-.146-.084.165.165 0 0 0-.131.067l-.062.082a2.364 2.364 0 0 0-.124.17c-.551.86-.846 1.81-1.042 2.54-.359 1.34-.524 2.459-.519 3.522.003.903.168 1.597.52 2.185.11.183.248.343.386.504.074.085.149.173.218.263a.326.326 0 0 1 .072.162c.009.214.005.432 0 .642l-.003.146a.27.27 0 0 1-.015.076 32.019 32.019 0 0 0-1.163 3.315c.049-.388.076-.763.083-1.129.04-2.08-.6-3.938-1.904-5.522l-.272-.329a.162.162 0 0 0-.127-.061l-.027.002a.165.165 0 0 0-.127.105l-.073.188a5.394 5.394 0 0 0-.125.337c-.28.873-.417 1.826-.445 3.091v.025c-.021.92-.05 2.181.329 3.387.374 1.188 1.033 1.788 1.16 1.895l.014.013c.348.309.574.591.621.775.019.074.038.149.06.222.1.327.038.638-.029.974-.034.17-.068.345-.08.524-.048.72-.107 1.452-.164 2.16l-.005.065-.044.542a8.81 8.81 0 0 0-1.61-4.393 8.614 8.614 0 0 0-2.01-2.026 1.49 1.49 0 0 0-.115-.073 1.674 1.674 0 0 1-.08-.048.17.17 0 0 0-.159-.007.162.162 0 0 0-.091.131l-.035.304c-.026.211-.05.41-.051.614-.012 2.118.438 4.104 1.337 5.899.251.502.582.936.985 1.289.399.35.83.556 1.316.63a.165.165 0 0 1 .04.02l.081.159c.097.187.198.38.248.574.041.164.041.343.041.533 0 .069 0 .139.003.208.046 1.641.108 2.213.371 3.679a7.2 7.2 0 0 0-.623-1.294C3.471 31.505 2.13 30.35.426 29.676c-.108-.044-.217-.075-.343-.112l-.025-.007a11.245 11.245 0 0 1-.163-.049.17.17 0 0 0-.155.03.166.166 0 0 0-.059.145c.013.116.021.229.029.34.018.242.034.471.093.697.55 2.114 1.46 3.799 2.781 5.149.565.577 1.161.908 1.821 1.012.166.026.37.029.714.008l.099-.006.041-.002c.027 0 .029 0 .048.028l.461.631a.32.32 0 0 1 .021.059l.007.023a32.215 32.215 0 0 0 1.774 4.653 9.198 9.198 0 0 0-1.046-1.201c-1.772-1.713-4.801-1.762-5.14-1.762h-.043l-.026.005a.163.163 0 0 0-.103.201c.024.079.046.159.071.252.049.175.099.357.169.532.336.835.88 1.639 1.713 2.53.572.611 1.217 1.23 2.056 1.622.919.429 1.748.534 2.573.324.14-.037.302-.083.441-.173.098-.064.125-.062.223.011.115.085.237.157.356.226.066.039.132.077.194.116.01.009.031.043.039.055a25.727 25.727 0 0 0 2.436 3.34 5.22 5.22 0 0 0-1.485-.761c-1.587-.509-3.251-.445-4.898.19a5.304 5.304 0 0 0-.534.249.162.162 0 0 0-.04.236c.052.067.101.134.151.201l.011.014c.111.151.237.322.378.473.637.679 1.421 1.135 2.175 1.526 1.036.536 2.096.824 3.149.858.05.002.099.003.149.003.969 0 1.726-.319 2.309-.969a.118.118 0 0 1 .047-.015c.222.016.434.048.592.074.025.005.056.02.075.037a20.67 20.67 0 0 0 3.085 2.255 5.794 5.794 0 0 0-.504-.124c-1.152-.221-2.328-.082-3.619.429-.871.346-1.681.854-2.476 1.553a.163.163 0 0 0-.021.224c.281.357.648.557.969.705.783.363 1.667.595 2.704.71.003.001.336.029.803.029.337 0 .651-.015.932-.045.269-.028.537-.073.797-.136 1.194-.289 2.004-.885 2.467-1.809a.232.232 0 0 1 .089-.04c.216-.053.41-.091.594-.116a.333.333 0 0 1 .166.033c.825.316 1.698.58 2.593.784a.163.163 0 0 0 .183-.083c.086-.158.19-.31.31-.451a.167.167 0 0 0 .03-.159.167.167 0 0 0-.12-.107z" fill="#333"/></svg>